<?xml version="1.0" encoding="UTF-8"?>
<svg xmlns="http://www.w3.org/2000/svg" width="445" height="213" viewBox="0 0 445 213" fill="none">
  <g clip-path="url(#clip0_839_2797)">
    <path d="M405.21 212.34H339.41C338.51 212.34 337.83 211.66 337.83 210.75V210.59L337.92 210.46C339.56 208.17 342.3 203.34 342.31 196.77C342.31 190.18 339.56 185.32 337.92 183.02L337.82 182.87V182.69C337.84 182.52 337.91 182.07 338.26 181.68C338.57 181.33 338.98 181.14 339.41 181.14H382.34C382.79 181.14 383.01 180.91 383.01 180.47V175.95C383.01 175.6 382.77 175.09 382.34 175.09H372.4C371.65 175.09 370.82 174.41 370.82 173.51V159.95C370.82 158.96 371.65 158.28 372.4 158.28H382.34C382.79 158.28 383.01 157.87 383.01 157.7V153.18C383.01 152.73 382.78 152.51 382.34 152.51H367.43C367.08 152.51 366.57 152.75 366.57 153.18V164.93C366.57 165.65 366.37 166.7 365.79 167.27L357.83 174.96C357.34 175.45 356.31 176 355.67 176H339.4C338.5 176 337.82 175.32 337.82 174.42V153.36C337.82 152.48 338.47 151.51 339.4 151.51H343.29C343.65 151.51 343.87 151.28 343.87 150.93V133.03C343.87 132.26 344.85 131.45 345.54 131.45H415.31C416.3 131.45 416.98 132.28 416.98 133.03V190.32L437.4 190.72L439.67 73.3599L398.62 72.5699V81.0599C398.62 81.9299 398.11 82.3199 397.61 82.3199H396.17C396.17 82.3199 396.16 82.3899 396.16 82.5199V89.4299C396.16 90.0999 395.68 90.6299 395.08 90.6299H379.97C379.39 90.6299 378.96 90.1199 378.96 89.4299V82.5199C378.96 82.3799 378.92 82.2999 378.91 82.2899L363.38 82.3199C362.88 82.3199 362.37 81.9299 362.37 81.0599V39.0799C362.37 38.3799 362.79 37.8799 363.38 37.8799H373.61C374.2 37.8799 374.62 38.3699 374.62 39.0799V60.6299C374.62 60.6999 374.65 60.7799 374.68 60.8299H378.91C378.94 60.7799 378.97 60.6899 378.97 60.6299V39.0799C378.97 38.3799 379.39 37.8799 379.98 37.8799H395.09C395.7 37.8799 396.17 38.4099 396.17 39.0799V60.6299C396.17 60.7099 396.22 60.8299 396.25 60.8499L397.62 60.8299C398.12 60.8299 398.63 61.2199 398.63 62.0899V71.4299L442.47 70.5799L444.94 198.25L417 198.79V200.55C417 201.3 416.73 202.38 416.13 202.98L407.54 211.57C406.96 212.15 405.92 212.35 405.2 212.35L405.21 212.34ZM338.84 210.9C338.89 211.17 339.11 211.34 339.41 211.34H405.21C405.78 211.34 406.53 211.17 406.84 210.85L415.43 202.26C415.75 201.94 416.01 201.18 416.01 200.53V197.79L443.93 197.25L441.5 71.5799L420.91 71.9799L440.72 72.3599L438.41 191.72L416.01 191.29V133.02C416.01 132.85 415.78 132.44 415.34 132.44H345.57C345.38 132.44 344.92 132.85 344.9 133.03V150.92C344.9 151.82 344.22 152.5 343.32 152.5H339.43C339.12 152.5 338.85 152.97 338.85 153.35V174.41C338.85 174.76 339.08 174.99 339.43 174.99H355.7C355.96 174.99 356.75 174.64 357.15 174.23L365.11 166.54C365.42 166.23 365.59 165.48 365.59 164.91V153.16C365.59 152.13 366.55 151.49 367.45 151.49H382.36C383.36 151.49 384.03 152.16 384.03 153.16V157.68C384.03 158.43 383.34 159.26 382.36 159.26H372.42C372.25 159.26 371.84 159.49 371.84 159.93V173.49C371.84 173.82 372.23 174.07 372.42 174.07H382.36C383.39 174.07 384.03 175.03 384.03 175.93V180.45C384.03 181.45 383.36 182.12 382.36 182.12H339.43C339.24 182.12 339.09 182.25 339.02 182.33C338.94 182.42 338.9 182.51 338.87 182.59C340.59 185.06 343.33 190.04 343.32 196.75C343.32 203.45 340.57 208.42 338.85 210.86L338.84 210.9ZM379.01 81.3099C379.57 81.3099 379.98 81.8199 379.98 82.5099V89.4199C379.98 89.5599 380.02 89.6299 380.03 89.6399L395.1 89.6199C395.1 89.6199 395.18 89.5599 395.18 89.4199V82.5099C395.18 81.8099 395.6 81.3099 396.19 81.3099H397.63C397.63 81.3099 397.64 81.2199 397.64 81.0499V62.0799C397.64 61.8999 397.6 61.8099 397.58 61.7999L396.18 61.8199C395.58 61.8199 395.17 61.1999 395.17 60.6199V39.0699C395.17 38.9299 395.1 38.8699 395.08 38.8699H379.97C379.97 38.8699 379.96 38.9399 379.96 39.0699V60.6199C379.96 61.1199 379.62 61.8199 378.99 61.8199H374.58C373.95 61.8199 373.61 61.1199 373.61 60.6199V39.0699C373.61 38.9299 373.57 38.8599 373.56 38.8499L363.38 38.8699C363.38 38.8699 363.37 38.9399 363.37 39.0699V81.0499C363.37 81.2299 363.41 81.3199 363.43 81.3299L379 81.3099H379.01Z" fill="white"></path>
    <path d="M224.73 125.26H139.76V122.11L143.58 116.36C147.85 109.93 152.13 103.46 156.4 96.9899C161.39 89.4399 166.37 81.8799 171.34 74.3199L173.21 71.4899L189.14 71.3999L191.06 74.3199C196.03 81.8799 201.01 89.4399 206 96.9899C209.57 102.39 213.13 107.79 216.7 113.16C219.21 116.94 221.71 120.71 224.21 124.48L224.73 125.26ZM140.76 124.26H222.86C220.53 120.75 218.2 117.24 215.86 113.72C212.29 108.35 208.73 102.95 205.16 97.5499C200.17 89.9999 195.19 82.4399 190.22 74.8799L188.65 72.4999H173.74L172.17 74.8799C167.2 82.4399 162.22 90.0099 157.23 97.5499C152.95 104.02 148.68 110.49 144.41 116.92L140.76 122.42V124.26Z" fill="white"></path>
    <path d="M182.97 111.21C182.97 111.21 182.91 111.12 182.87 111.07C182.23 110.41 181.44 110.2 181.21 110.14C181.5 110.01 181.89 109.75 182.18 109.25C182.49 108.75 182.57 108.23 182.57 107.72C182.57 106.66 182.24 105.83 181.55 105.17C180.7 104.38 179.66 104.17 177.99 104.17H176.04V117.06H179.27C180.26 117.06 181.86 116.89 182.88 115.8C183.5 115.14 183.73 114.41 183.73 113.48C183.73 112.74 183.58 111.91 182.98 111.2L182.97 111.21ZM178 106.03H178.68C179.24 106.03 179.8 106.09 180.25 106.51C180.66 106.9 180.71 107.36 180.71 107.75C180.71 108.19 180.65 108.79 180.21 109.22C179.75 109.66 179.09 109.72 178.61 109.72H178.01V106.03H178ZM181.15 114.7C180.65 115.11 179.76 115.2 179.2 115.2H178V111.41C178.45 111.39 178.9 111.36 179.35 111.34C180.02 111.34 180.75 111.42 181.26 111.92C181.59 112.25 181.78 112.75 181.78 113.27C181.78 113.85 181.53 114.39 181.14 114.7H181.15Z" fill="white"></path>
    <path d="M204.18 103.94C200.32 103.94 197.47 106.84 197.47 110.63C197.47 110.9 197.52 111.16 197.54 111.42C197.91 114.81 200.58 117.32 204.17 117.32C207.32 117.32 209.76 115.38 210.56 112.62C210.74 111.99 210.87 111.34 210.87 110.63C210.87 106.84 208.03 103.94 204.17 103.94H204.18ZM208.62 112.37C207.99 114.26 206.33 115.49 204.18 115.49C201.72 115.49 199.89 113.89 199.52 111.52C199.47 111.23 199.44 110.93 199.44 110.62C199.44 107.76 201.41 105.75 204.17 105.75C206.93 105.75 208.9 107.76 208.9 110.62C208.9 111.25 208.79 111.83 208.61 112.37H208.62Z" fill="white"></path>
    <path d="M139.81 118.73L139.76 115.9V17.83C139.76 16.78 140.76 15.96 141.63 15.96H152.97L153.12 16.19C158.49 24.47 163.93 32.84 169.42 41.27L171.82 44.95L171.78 45.26V70.22L168.71 74.88C163.71 82.43 158.71 89.99 153.74 97.55C149.48 104.02 145.22 110.49 140.99 116.94L139.82 118.73H139.81ZM141.63 16.96C141.33 16.96 140.76 17.32 140.76 17.83V115.45C144.78 109.31 148.84 103.16 152.89 97C157.87 89.44 162.86 81.88 167.87 74.33L170.78 69.92V45.19L168.58 41.82C163.14 33.47 157.75 25.18 152.43 16.97H141.63V16.96Z" fill="white"></path>
    <path d="M116.71 154.14H89.59C88.66 154.14 88.01 153.45 88.01 152.46V133.03C88.01 132.28 88.69 131.45 89.59 131.45H131.49L130.99 132.22C126.24 139.49 121.53 146.72 116.86 153.91L116.71 154.14ZM89.58 132.45C89.25 132.45 89 132.84 89 133.03V152.46C89 152.89 89.21 153.14 89.58 153.14H116.16C120.62 146.28 125.11 139.38 129.64 132.45H89.58Z" fill="white"></path>
    <path d="M92.67 191.31L92.5 189.95C91.78 184.35 89.7 180.03 88.07 177.4L88.01 177.3V177.18C87.99 177.09 87.96 176.31 88.59 175.8C88.86 175.58 89.21 175.47 89.58 175.47H102.89L102.39 176.24C99.37 180.92 96.38 185.55 93.42 190.17L92.68 191.32L92.67 191.31ZM89 177C90.53 179.51 92.43 183.45 93.29 188.5C95.86 184.51 98.44 180.5 101.05 176.46H89.58C89.43 176.46 89.31 176.5 89.21 176.58C89.06 176.7 89.01 176.89 89 177.01V177Z" fill="white"></path>
    <path d="M155.38 212.34H89.58C88.68 212.34 88 211.66 88 210.75V210.61L88.07 210.49C90.07 207.25 92.47 201.98 92.73 195.13L1.82 196.63L1.78 194.55L0 86.4101L27.95 85.9501V53.0801C27.95 51.9101 28.72 51.1001 29.82 51.1001H49.21C50.4 51.1001 51.19 51.9001 51.19 53.0801V113.17C51.19 114.27 50.38 115.04 49.21 115.04H48.9L48.76 114.76C47.02 111.26 43.52 109.05 39.63 109.01C39.59 109.01 39.56 109.01 39.52 109.01C35.63 109.01 32.01 111.26 30.27 114.76L30.14 115.02H29.84C29.66 115.04 29.01 115.02 28.48 114.5C28.14 114.16 27.95 113.68 27.95 113.16V94.2901L7.56 93.9501L5.93 192.52L92.77 193.96V193.88C92.77 193.39 92.76 192.9 92.73 192.43V192.26L92.81 192.12C96.49 186.68 100.19 181.2 103.92 175.66C108.88 168.3 113.88 160.85 118.91 153.34C123.71 146.17 128.55 138.93 133.4 131.65L133.55 131.43H165.5C166.53 131.43 167.36 132.3 167.36 133.01V200.52C167.36 201.25 167 201.99 166.31 202.68L157.73 211.53C157.15 212.11 156.1 212.32 155.38 212.32V212.34ZM89.01 210.88C89.06 211.16 89.27 211.34 89.58 211.34H155.38C155.95 211.34 156.7 211.17 157.02 210.85L165.6 202C165.95 201.65 166.36 201.12 166.36 200.54V133.03C166.36 132.89 165.99 132.45 165.5 132.45H134.08C129.28 139.65 124.5 146.82 119.74 153.92C114.71 161.43 109.71 168.88 104.75 176.24C101.05 181.74 97.38 187.17 93.73 192.57C93.75 193.01 93.76 193.45 93.76 193.9C93.76 194.02 93.76 194.15 93.76 194.27L93.74 195C93.51 202.06 91.07 207.5 89.01 210.89V210.88ZM1.02 87.4001L2.81 195.63L67.42 194.56L4.92 193.53V193.03L6.58 92.9601L28.96 93.3301V113.18C28.96 113.44 29.04 113.66 29.2 113.81C29.31 113.92 29.43 113.98 29.54 114.01C31.52 110.31 35.49 107.95 39.64 108.02C43.8 108.06 47.54 110.35 49.5 114.02C49.94 113.93 50.19 113.63 50.19 113.18V53.0901C50.19 52.4601 49.84 52.1101 49.21 52.1101H29.82C29.28 52.1101 28.95 52.4801 28.95 53.0901V86.9401L1.02 87.4001Z" fill="white"></path>
    <path d="M327.61 212.42C327.42 212.42 327.23 212.37 327.07 212.27L311.97 206.71C311.7 206.56 311.04 206.71 310.69 207.05L306.17 211.57C305.66 212.08 305.16 212.29 305.1 212.31L304.91 212.35H251.13C250.23 212.35 249.55 211.67 249.55 210.76V210.62L249.63 210.5C251.8 207.01 254.38 201.28 254.35 193.84C254.32 186.5 251.77 180.85 249.63 177.41L249.56 177.3V177.17C249.55 177.03 249.54 176.29 250.14 175.8C250.41 175.58 250.76 175.47 251.13 175.47H258.33L258.48 175.69C266.21 187.16 273.77 198.35 280.98 208.94L281.02 208.91C274.35 198.49 267.29 187.5 260.01 176.23L259.51 175.46H278.24C278.69 175.46 278.92 175.05 278.92 174.88V154.72C278.92 154.35 278.67 154.14 278.24 154.14H251.13C250.2 154.14 249.55 153.45 249.55 152.46V133.03C249.55 132.28 250.23 131.45 251.13 131.45H317.11C318.1 131.45 318.78 132.28 318.78 133.03V171.44C318.78 171.67 319.08 172.2 319.5 172.32L327.75 175.53C328.32 175.87 328.9 176.64 328.9 177.59V210.94C328.9 211.5 328.62 212.01 328.17 212.27C327.99 212.37 327.79 212.42 327.6 212.42H327.61ZM311.67 205.63C311.93 205.63 312.18 205.69 312.39 205.81L327.49 211.37C327.61 211.43 327.65 211.41 327.68 211.39C327.78 211.33 327.9 211.18 327.9 210.93V177.58C327.9 177.08 327.58 176.61 327.27 176.4L319.18 173.25C318.37 173.02 317.78 172.1 317.78 171.43V133.02C317.78 132.85 317.55 132.44 317.11 132.44H251.13C250.8 132.44 250.55 132.83 250.55 133.02V152.45C250.55 152.88 250.76 153.13 251.13 153.13H278.24C279.23 153.13 279.92 153.78 279.92 154.71V174.87C279.92 175.62 279.23 176.45 278.24 176.45H261.34C268.54 187.6 275.53 198.47 282.12 208.77L282.39 209.19L280.7 210.3L280.42 209.89C273.18 199.24 265.56 187.99 257.79 176.45H251.12C250.97 176.45 250.85 176.49 250.75 176.57C250.6 176.69 250.55 176.88 250.54 176.99C252.73 180.56 255.31 186.34 255.33 193.82C255.36 201.4 252.76 207.26 250.54 210.87C250.59 211.15 250.8 211.33 251.12 211.33H304.79C304.92 211.27 305.18 211.11 305.45 210.84L309.97 206.32C310.38 205.91 311.06 205.61 311.67 205.61V205.63Z" fill="white"></path>
    <path d="M176.64 212.35H176.55C176.38 212.34 175.93 212.28 175.51 211.93C175.12 211.61 174.91 211.2 174.91 210.76V182.74C174.91 181.97 175.89 181.16 176.59 181.16H190.33C190.78 181.16 191.01 180.93 191.01 180.49V164.04C191.01 163.83 190.76 163.37 190.33 163.37H177.95C176.96 163.37 176.28 162.72 176.28 161.79V145.97C176.28 144.97 176.95 144.29 177.95 144.29H238.96C239.89 144.29 240.54 144.98 240.54 145.97V161.79C240.54 162.69 239.86 163.37 238.96 163.37H226.49C226.18 163.37 225.91 163.83 225.91 164.04V180.49C225.91 180.92 226.12 181.16 226.49 181.16H240.32C241.05 181.16 241.9 182.02 241.9 182.74V210.76C241.9 211.67 241.06 212.35 240.32 212.35L240.17 212.33C229.88 209.18 219.21 207.58 208.46 207.58H208.42C197.68 207.58 187.02 209.18 176.75 212.33L176.67 212.36L176.64 212.35ZM208.44 206.58C219.26 206.58 230 208.18 240.35 211.34C240.56 211.3 240.88 211.06 240.88 210.76V182.74C240.88 182.56 240.48 182.16 240.3 182.16H226.47C225.54 182.16 224.89 181.47 224.89 180.49V164.04C224.89 163.37 225.52 162.37 226.47 162.37H238.94C239.3 162.37 239.52 162.14 239.52 161.79V145.97C239.52 145.54 239.31 145.29 238.94 145.29H177.93C177.48 145.29 177.26 145.52 177.26 145.97V161.79C177.26 162.16 177.51 162.37 177.93 162.37H190.31C191.35 162.37 191.99 163.35 191.99 164.04V180.49C191.99 181.49 191.32 182.16 190.31 182.16H176.57C176.38 182.16 175.92 182.57 175.89 182.75V210.76C175.89 210.94 176.04 211.08 176.12 211.15C176.27 211.27 176.43 211.32 176.52 211.33C186.86 208.18 197.58 206.58 208.39 206.57H208.43L208.44 206.58Z" fill="white"></path>
    <path d="M398.64 125.26H226.87L226.72 125.03C224.4 121.49 222.08 117.95 219.75 114.39C216.07 108.78 212.37 103.16 208.67 97.5402C203.69 89.9802 198.7 82.4202 193.7 74.8702L191.94 72.2002C191.19 71.0602 190.44 69.9202 189.68 68.7802L189.6 68.6502V46.4602L192.99 41.2602C198.48 32.8402 203.92 24.4702 209.29 16.1802L209.44 15.9502H234C235.17 15.9502 235.98 16.7202 235.98 17.8202V96.7602H398.64V125.25V125.26ZM227.41 124.26H397.64V97.7702H234.98V17.8302C234.98 17.2902 234.61 16.9602 234 16.9602H209.98C204.66 25.1702 199.27 33.4702 193.83 41.8102L190.6 46.7602V68.3502C191.33 69.4502 192.05 70.5502 192.78 71.6502L194.54 74.3202C199.54 81.8702 204.54 89.4302 209.52 96.9902C213.22 102.61 216.93 108.24 220.6 113.84C222.88 117.32 225.15 120.78 227.42 124.25L227.41 124.26Z" fill="white"></path>
    <path d="M188.99 44.33H173.41L171.73 41.82C166.09 33.37 160.49 25.01 154.94 16.74L154.42 15.96H207.97L207.45 16.74C201.9 25.01 196.3 33.37 190.66 41.82L188.98 44.33H188.99ZM173.95 43.33H188.46L189.84 41.26C195.3 33.08 200.72 24.97 206.1 16.96H156.3C161.68 24.97 167.1 33.08 172.56 41.26L173.94 43.33H173.95Z" fill="white"></path>
    <path d="M57.83 117.77C57.59 117.77 57.01 117.72 56.53 117.24C56.19 116.9 56 116.42 56 115.9V48.6202C56 48.0802 55.63 47.7502 55.02 47.7502H29.36C28.26 47.7502 27.49 46.9402 27.49 45.7702V23.3102C27.49 22.5202 28.24 21.3302 29.36 21.3302H55.02C55.64 21.3302 56 21.0102 56 20.4602V17.8402C56 16.7602 56.79 15.9702 57.87 15.9702H96.64C97.81 15.9702 98.62 16.7402 98.62 17.8402V20.4602C98.62 20.9702 99.18 21.3302 99.49 21.3302H125.15C126.32 21.3302 127.36 22.4402 127.36 23.3102V45.7702C127.36 46.9002 126.41 47.7502 125.15 47.7502H99.49C99.18 47.7502 98.62 48.1102 98.62 48.6202V115.9C98.62 117 97.81 117.77 96.64 117.77H96.48L96.35 117.68C93.13 115.47 86.37 111.77 77.28 111.76H77.24C68.13 111.76 61.36 115.47 58.14 117.68L58.02 117.76H57.88C57.88 117.76 57.84 117.76 57.82 117.76L57.83 117.77ZM29.37 22.3202C28.89 22.3202 28.5 22.9702 28.5 23.3002V45.7602C28.5 46.3702 28.82 46.7402 29.37 46.7402H55.03C56.2 46.7402 57.01 47.5102 57.01 48.6102V115.89C57.01 116.15 57.09 116.36 57.25 116.52C57.41 116.68 57.61 116.74 57.73 116.75C61.11 114.46 68.01 110.75 77.26 110.75H77.3C86.53 110.76 93.42 114.47 96.79 116.75C97.32 116.7 97.63 116.39 97.63 115.89V48.6202C97.63 47.5702 98.63 46.7502 99.5 46.7502H125.16C125.76 46.7502 126.37 46.4102 126.37 45.7702V23.3102C126.37 23.0402 125.82 22.3302 125.16 22.3302H99.5C98.64 22.3302 97.63 21.5102 97.63 20.4602V17.8402C97.63 17.3002 97.26 16.9702 96.65 16.9702H57.88C57.36 16.9702 57.01 17.3202 57.01 17.8402V20.4602C57.01 21.5602 56.19 22.3302 55.03 22.3302H29.37V22.3202Z" fill="white"></path>
    <path d="M106.5 115.05C106.23 115.05 105.48 114.99 104.97 114.35C104.71 114.03 104.57 113.62 104.57 113.18V53.0901C104.57 51.9001 105.37 51.1101 106.55 51.1101H125.94C126.82 51.1101 127.81 51.9201 127.81 53.0901V113.18C127.81 114.23 126.81 115.05 125.94 115.05H125.63L125.49 114.77C123.78 111.24 120.16 108.96 116.25 108.96H116.2C112.31 108.98 108.71 111.26 107.01 114.77L106.88 115.03L106.59 115.05C106.59 115.05 106.54 115.05 106.49 115.05H106.5ZM106.56 52.1001C105.93 52.1001 105.58 52.4501 105.58 53.0801V113.17C105.58 113.39 105.64 113.58 105.75 113.72C105.9 113.9 106.1 113.98 106.26 114.02C108.18 110.35 112.04 107.98 116.19 107.96C120.4 107.94 124.27 110.29 126.22 113.98C126.5 113.85 126.81 113.56 126.81 113.18V53.0901C126.81 52.4501 126.24 52.1101 125.94 52.1101H106.55L106.56 52.1001Z" fill="white"></path>
    <path d="M279.85 90.6302H246.86C246.25 90.6302 245.77 90.1002 245.77 89.4302V63.0802C245.77 62.5502 246.01 61.8602 246.24 61.5102L249.95 55.9502C250.25 55.5002 250.82 55.2602 251.22 55.2602H264.87C264.91 55.1902 264.97 55.0402 264.97 54.8802V52.1302C264.97 52.0002 264.93 51.9102 264.9 51.8702H246.84C246.24 51.8702 245.83 51.2502 245.83 50.6702V38.9602C245.83 38.4302 246.18 37.7002 246.84 37.7002H279.83C280.45 37.7002 280.8 38.4502 280.8 38.9602V65.3102C280.8 66.0102 280.39 66.5102 279.83 66.5102H263.42C263.38 66.5802 263.34 66.6902 263.34 66.7702V69.8102C263.34 70.0002 263.38 70.0902 263.4 70.1102L279.82 70.0802C280.45 70.0802 280.79 70.7802 280.79 71.2802V89.4302C280.79 90.1302 280.38 90.6302 279.82 90.6302H279.85ZM246.86 89.6302H279.82C279.82 89.6302 279.82 89.5502 279.82 89.4302V71.2802C279.82 71.2102 279.79 71.1302 279.76 71.0802H263.34C262.87 71.0802 262.37 70.6902 262.37 69.8202V66.7802C262.37 66.2602 262.71 65.5202 263.34 65.5202H279.83C279.83 65.5202 279.83 65.4402 279.83 65.3202V38.9702C279.83 38.8902 279.79 38.7802 279.75 38.7102H246.94C246.9 38.7702 246.86 38.8902 246.86 38.9702V50.6802C246.86 50.7702 246.91 50.8802 246.94 50.9002L265.02 50.8802C265.55 50.8802 265.99 51.4502 265.99 52.1402V54.8902C265.99 55.5402 265.59 56.2702 265.02 56.2702H251.24C251.13 56.2702 250.9 56.3702 250.8 56.5202L247.09 62.0802C246.95 62.2902 246.78 62.7802 246.78 63.0902V89.4402C246.78 89.5802 246.85 89.6402 246.87 89.6402L246.86 89.6302Z" fill="white"></path>
    <path d="M314.48 90.6302H285.9C285.32 90.6302 284.89 90.1202 284.89 89.4302V45.6902C284.89 45.0902 285.13 44.4202 285.36 44.0702L289.07 38.5102C289.33 38.1202 289.85 37.7002 290.38 37.7002H318.88C319.5 37.7002 319.85 38.4502 319.85 38.9602V82.8202C319.85 83.4202 319.73 83.9102 319.49 84.2702L315.78 90.0002C315.46 90.4702 314.89 90.6402 314.46 90.6402L314.48 90.6302ZM285.93 89.6302H314.48C314.69 89.6302 314.89 89.5502 314.96 89.4402L318.67 83.7102C318.8 83.5202 318.86 83.2102 318.86 82.8102V38.9502C318.86 38.8702 318.82 38.7602 318.78 38.6902H290.38C290.3 38.6902 290.04 38.8402 289.9 39.0502L286.19 44.6102C286.04 44.8302 285.88 45.3202 285.88 45.6802V89.4202C285.88 89.5302 285.9 89.5902 285.92 89.6202L285.93 89.6302ZM302.18 67.3802H297.1C296.54 67.3802 296.13 66.8702 296.13 66.1802V53.0102C296.13 52.1402 296.63 51.7502 297.1 51.7502H302.18C302.66 51.7502 303.19 52.2702 303.19 53.0102V66.1802C303.19 66.8702 302.66 67.3802 302.18 67.3802ZM297.13 52.7402C297.13 52.7402 297.13 52.8402 297.13 53.0002V66.1702C297.13 66.3102 297.17 66.3902 297.18 66.4002L302.17 66.3702C302.11 66.3702 302.18 66.2902 302.18 66.1702V53.0002C302.18 52.8602 302.13 52.7802 302.1 52.7402H297.13Z" fill="white"></path>
    <path d="M357.93 90.6302H324.94C324.33 90.6302 323.85 90.1002 323.85 89.4302V63.0802C323.85 62.5502 324.09 61.8602 324.32 61.5102L328.03 55.9502C328.33 55.5002 328.9 55.2602 329.3 55.2602H342.95C342.99 55.1902 343.05 55.0402 343.05 54.8802V52.1302C343.05 52.0002 343.01 51.9102 342.98 51.8702H324.92C324.32 51.8702 323.91 51.2502 323.91 50.6702V38.9602C323.91 38.4302 324.26 37.7002 324.92 37.7002H357.91C358.53 37.7002 358.88 38.4502 358.88 38.9602V65.3102C358.88 66.0102 358.47 66.5102 357.91 66.5102H341.5C341.46 66.5802 341.42 66.6902 341.42 66.7702V69.8102C341.42 70.0002 341.46 70.0902 341.48 70.1102L357.9 70.0802C358.53 70.0802 358.87 70.7802 358.87 71.2802V89.4302C358.87 90.1302 358.46 90.6302 357.9 90.6302H357.93ZM324.94 89.6302H357.9C357.9 89.6302 357.9 89.5502 357.9 89.4302V71.2802C357.9 71.2102 357.87 71.1302 357.84 71.0802H341.42C340.95 71.0802 340.45 70.6902 340.45 69.8202V66.7802C340.45 66.2602 340.79 65.5202 341.42 65.5202H357.91C357.91 65.5202 357.91 65.4402 357.91 65.3202V38.9702C357.91 38.8902 357.87 38.7802 357.83 38.7102H325.02C324.98 38.7702 324.94 38.8902 324.94 38.9702V50.6802C324.94 50.7702 324.99 50.8802 325.02 50.9002L343.1 50.8802C343.63 50.8802 344.07 51.4502 344.07 52.1402V54.8902C344.07 55.5402 343.67 56.2702 343.1 56.2702H329.32C329.21 56.2702 328.98 56.3702 328.88 56.5202L325.17 62.0802C325.03 62.2902 324.86 62.7802 324.86 63.0902V89.4402C324.86 89.5802 324.93 89.6402 324.95 89.6402L324.94 89.6302Z" fill="white"></path>
    <path d="M111.82 19.59H103.49C102.36 19.59 101.44 18.67 101.44 17.54V2.05C101.44 0.92 102.36 0 103.49 0H111.82C112.95 0 113.87 0.92 113.87 2.05V17.54C113.87 18.67 112.95 19.59 111.82 19.59ZM103.49 1C102.91 1 102.44 1.47 102.44 2.05V17.54C102.44 18.12 102.91 18.59 103.49 18.59H111.82C112.4 18.59 112.87 18.12 112.87 17.54V2.05C112.87 1.47 112.4 1 111.82 1H103.49Z" fill="white"></path>
    <path d="M125.31 19.59H116.98C115.85 19.59 114.93 18.67 114.93 17.54V2.05C114.93 0.92 115.85 0 116.98 0H125.31C126.44 0 127.36 0.92 127.36 2.05V17.54C127.36 18.67 126.44 19.59 125.31 19.59ZM116.99 1C116.41 1 115.94 1.47 115.94 2.05V17.54C115.94 18.12 116.41 18.59 116.99 18.59H125.32C125.9 18.59 126.37 18.12 126.37 17.54V2.05C126.37 1.47 125.9 1 125.32 1H116.99Z" fill="white"></path>
    <path d="M228.05 110.09H227.43V105.99H228.11C229.08 105.99 230.8 106.16 230.8 107.98C230.8 110.03 228.6 110.09 228.06 110.09H228.05ZM225.46 117.06H227.43V111.78H227.78L231.08 116.5L231.47 117.05H233.85L229.83 111.54C231.55 111.15 232.69 109.8 232.69 107.95C232.69 107.39 232.57 105.86 231.16 104.92C230.33 104.36 229.32 104.17 227.76 104.17H225.46V117.06Z" fill="white"></path>
    <path d="M248.79 110.63C248.79 107.77 250.76 105.76 253.52 105.76C256.28 105.76 258.25 107.77 258.25 110.63C258.25 113.49 256.28 115.5 253.52 115.5C250.76 115.5 248.79 113.49 248.79 110.63ZM246.82 110.63C246.82 114.42 249.66 117.31 253.52 117.31C257.38 117.31 260.22 114.41 260.22 110.63C260.22 106.85 257.38 103.94 253.52 103.94C249.66 103.94 246.82 106.84 246.82 110.63Z" fill="white"></path>
    <path d="M274.81 104.17H281.27V106.03H276.79V109.3H281.11V111.15H276.79V117.06H274.81V104.17Z" fill="white"></path>
    <path d="M295.54 104.17H302.65V106.03H297.51V109.3H302.49V111.15H297.51V115.21H302.65V117.06H295.54V104.17Z" fill="white"></path>
    <path d="M320.82 111.13L319.58 110.61C318.52 110.17 316.95 109.28 316.95 107.34C316.95 105.6 318.3 103.94 320.72 103.94C322.11 103.94 322.9 104.46 323.31 104.81C323.66 105.12 324.03 105.56 324.3 106.1L322.72 107.03C322.6 106.74 322.43 106.47 322.14 106.22C321.73 105.89 321.31 105.76 320.75 105.76C319.55 105.76 318.93 106.48 318.93 107.31C318.93 107.7 319.07 108.37 320.32 108.88L321.61 109.4C323.99 110.37 324.64 111.72 324.64 113.19C324.64 115.64 322.9 117.32 320.49 117.32C319 117.32 318.11 116.76 317.46 116.03C316.76 115.26 316.45 114.41 316.38 113.52L318.33 113.09C318.33 113.73 318.56 114.33 318.87 114.73C319.24 115.19 319.78 115.5 320.55 115.5C321.75 115.5 322.68 114.63 322.68 113.34C322.68 112.05 321.68 111.49 320.83 111.14L320.82 111.13Z" fill="white"></path>
    <path d="M337.99 104.17H345.88V106.03H342.92V117.06H340.95V106.03H337.99V104.17Z" fill="white"></path>
    <path d="M365.72 112.1H361.82L363.81 107.73L365.72 112.1ZM357.47 117.06H359.6L361.01 113.95H366.52L367.87 117.06H370L363.89 103.42L357.48 117.06H357.47Z" fill="white"></path>
  </g>
  <defs>
    <clipPath id="clip0_839_2797">
      <rect width="444.95" height="212.42" fill="white"></rect>
    </clipPath>
  </defs>
</svg>
